M48
;DRILL file {KiCad (2017-05-18 revision 2a3a699)-master} date Fri Mar 29 17:20:23 2019
;FORMAT={3:3/ absolute / metric / suppress leading zeros}
FMAT,2
METRIC,TZ
T1C1.000
%
G90
G05
M71
T1
X5390Y1810
X7930Y1810
X10470Y1810
X13010Y1810
X15550Y1810
X18090Y1810
X20630Y1810
X23170Y1810
X25710Y1810
X28250Y1810
X30790Y1810
X5380Y34400
X7920Y34400
X10460Y34400
X13000Y34400
X15540Y34400
X18080Y34400
X20620Y34400
X23160Y34400
X25700Y34400
X28240Y34400
X30780Y34400
X34370Y30800
X34370Y28260
X34370Y25720
X34370Y23180
X34370Y20640
X34370Y18100
X34370Y15560
X34370Y13020
X34370Y10480
X34370Y7940
X34370Y5400
X1790Y30820
X1790Y28280
X1790Y25740
X1790Y23200
X1790Y20660
X1790Y18120
X1790Y15580
X1790Y13040
X1790Y10500
X1790Y7960
X1790Y5420
T0
M30
