%FSLAX45Y45*%
G04 Gerber Fmt 4.5, Leading zero omitted, Abs format (unit mm)*
G04 Created by KiCad (PCBNEW (2017-05-18 revision 2a3a699)-master) date Thu Apr 25 16:04:48 2019*
%MOMM*%
%LPD*%
G01*
G04 APERTURE LIST*
%ADD10C,0.127000*%
%ADD11C,0.150000*%
%ADD12C,0.200000*%
%ADD13C,0.300000*%
G04 APERTURE END LIST*
D10*
D11*
X0Y3620000D02*
X3617000Y3620000D01*
X0Y1000D02*
X0Y3620000D01*
X3617000Y1000D02*
X0Y1000D01*
X3617000Y3620000D02*
X3617000Y1000D01*
D12*
X129000Y3132000D02*
X229000Y3032000D01*
X229000Y3132000D02*
X129000Y3032000D01*
X129000Y2878000D02*
X229000Y2778000D01*
X229000Y2878000D02*
X129000Y2778000D01*
X129000Y2624000D02*
X229000Y2524000D01*
X229000Y2624000D02*
X129000Y2524000D01*
X129000Y2370000D02*
X229000Y2270000D01*
X229000Y2370000D02*
X129000Y2270000D01*
X129000Y2116000D02*
X229000Y2016000D01*
X229000Y2116000D02*
X129000Y2016000D01*
X129000Y1862000D02*
X229000Y1762000D01*
X229000Y1862000D02*
X129000Y1762000D01*
X129000Y1608000D02*
X229000Y1508000D01*
X229000Y1608000D02*
X129000Y1508000D01*
X129000Y1354000D02*
X229000Y1254000D01*
X229000Y1354000D02*
X129000Y1254000D01*
X129000Y1100000D02*
X229000Y1000000D01*
X229000Y1100000D02*
X129000Y1000000D01*
X129000Y846000D02*
X229000Y746000D01*
X229000Y846000D02*
X129000Y746000D01*
X129000Y592000D02*
X229000Y492000D01*
X229000Y592000D02*
X129000Y492000D01*
X489000Y231000D02*
X589000Y131000D01*
X589000Y231000D02*
X489000Y131000D01*
X743000Y231000D02*
X843000Y131000D01*
X843000Y231000D02*
X743000Y131000D01*
X997000Y231000D02*
X1097000Y131000D01*
X1097000Y231000D02*
X997000Y131000D01*
X1251000Y231000D02*
X1351000Y131000D01*
X1351000Y231000D02*
X1251000Y131000D01*
X1505000Y231000D02*
X1605000Y131000D01*
X1605000Y231000D02*
X1505000Y131000D01*
X1759000Y231000D02*
X1859000Y131000D01*
X1859000Y231000D02*
X1759000Y131000D01*
X2013000Y231000D02*
X2113000Y131000D01*
X2113000Y231000D02*
X2013000Y131000D01*
X2267000Y231000D02*
X2367000Y131000D01*
X2367000Y231000D02*
X2267000Y131000D01*
X2521000Y231000D02*
X2621000Y131000D01*
X2621000Y231000D02*
X2521000Y131000D01*
X2775000Y231000D02*
X2875000Y131000D01*
X2875000Y231000D02*
X2775000Y131000D01*
X3029000Y231000D02*
X3129000Y131000D01*
X3129000Y231000D02*
X3029000Y131000D01*
X488000Y3490000D02*
X588000Y3390000D01*
X588000Y3490000D02*
X488000Y3390000D01*
X742000Y3490000D02*
X842000Y3390000D01*
X842000Y3490000D02*
X742000Y3390000D01*
X996000Y3490000D02*
X1096000Y3390000D01*
X1096000Y3490000D02*
X996000Y3390000D01*
X1250000Y3490000D02*
X1350000Y3390000D01*
X1350000Y3490000D02*
X1250000Y3390000D01*
X1504000Y3490000D02*
X1604000Y3390000D01*
X1604000Y3490000D02*
X1504000Y3390000D01*
X1758000Y3490000D02*
X1858000Y3390000D01*
X1858000Y3490000D02*
X1758000Y3390000D01*
X2012000Y3490000D02*
X2112000Y3390000D01*
X2112000Y3490000D02*
X2012000Y3390000D01*
X2266000Y3490000D02*
X2366000Y3390000D01*
X2366000Y3490000D02*
X2266000Y3390000D01*
X2520000Y3490000D02*
X2620000Y3390000D01*
X2620000Y3490000D02*
X2520000Y3390000D01*
X2774000Y3490000D02*
X2874000Y3390000D01*
X2874000Y3490000D02*
X2774000Y3390000D01*
X3028000Y3490000D02*
X3128000Y3390000D01*
X3128000Y3490000D02*
X3028000Y3390000D01*
X3387000Y3130000D02*
X3487000Y3030000D01*
X3487000Y3130000D02*
X3387000Y3030000D01*
X3387000Y2876000D02*
X3487000Y2776000D01*
X3487000Y2876000D02*
X3387000Y2776000D01*
X3387000Y2622000D02*
X3487000Y2522000D01*
X3487000Y2622000D02*
X3387000Y2522000D01*
X3387000Y2368000D02*
X3487000Y2268000D01*
X3487000Y2368000D02*
X3387000Y2268000D01*
X3387000Y2114000D02*
X3487000Y2014000D01*
X3487000Y2114000D02*
X3387000Y2014000D01*
X3387000Y1860000D02*
X3487000Y1760000D01*
X3487000Y1860000D02*
X3387000Y1760000D01*
X3387000Y1606000D02*
X3487000Y1506000D01*
X3487000Y1606000D02*
X3387000Y1506000D01*
X3387000Y1352000D02*
X3487000Y1252000D01*
X3487000Y1352000D02*
X3387000Y1252000D01*
X3387000Y1098000D02*
X3487000Y998000D01*
X3487000Y1098000D02*
X3387000Y998000D01*
X3387000Y844000D02*
X3487000Y744000D01*
X3487000Y844000D02*
X3387000Y744000D01*
X3387000Y590000D02*
X3487000Y490000D01*
X3487000Y590000D02*
X3387000Y490000D01*
D13*
X278928Y-472214D02*
X278928Y-172214D01*
X350357Y-172214D01*
X393214Y-186500D01*
X421786Y-215071D01*
X436071Y-243643D01*
X450357Y-300786D01*
X450357Y-343643D01*
X436071Y-400786D01*
X421786Y-429357D01*
X393214Y-457929D01*
X350357Y-472214D01*
X278928Y-472214D01*
X578928Y-472214D02*
X578928Y-272214D01*
X578928Y-329357D02*
X593214Y-300786D01*
X607500Y-286500D01*
X636071Y-272214D01*
X664643Y-272214D01*
X764643Y-472214D02*
X764643Y-272214D01*
X764643Y-172214D02*
X750357Y-186500D01*
X764643Y-200786D01*
X778928Y-186500D01*
X764643Y-172214D01*
X764643Y-200786D01*
X950357Y-472214D02*
X921786Y-457929D01*
X907500Y-429357D01*
X907500Y-172214D01*
X1107500Y-472214D02*
X1078928Y-457929D01*
X1064643Y-429357D01*
X1064643Y-172214D01*
X1450357Y-472214D02*
X1450357Y-172214D01*
X1550357Y-386500D01*
X1650357Y-172214D01*
X1650357Y-472214D01*
X1921786Y-472214D02*
X1921786Y-315072D01*
X1907500Y-286500D01*
X1878928Y-272214D01*
X1821786Y-272214D01*
X1793214Y-286500D01*
X1921786Y-457929D02*
X1893214Y-472214D01*
X1821786Y-472214D01*
X1793214Y-457929D01*
X1778928Y-429357D01*
X1778928Y-400786D01*
X1793214Y-372214D01*
X1821786Y-357929D01*
X1893214Y-357929D01*
X1921786Y-343643D01*
X2064643Y-272214D02*
X2064643Y-572214D01*
X2064643Y-286500D02*
X2093214Y-272214D01*
X2150357Y-272214D01*
X2178928Y-286500D01*
X2193214Y-300786D01*
X2207500Y-329357D01*
X2207500Y-415071D01*
X2193214Y-443643D01*
X2178928Y-457929D01*
X2150357Y-472214D01*
X2093214Y-472214D01*
X2064643Y-457929D01*
X2336071Y-443643D02*
X2350357Y-457929D01*
X2336071Y-472214D01*
X2321786Y-457929D01*
X2336071Y-443643D01*
X2336071Y-472214D01*
X2336071Y-286500D02*
X2350357Y-300786D01*
X2336071Y-315072D01*
X2321786Y-300786D01*
X2336071Y-286500D01*
X2336071Y-315072D01*
X-107500Y-916500D02*
X-7500Y-1016500D01*
X-7500Y-916500D02*
X-107500Y-1016500D01*
X436071Y-1102214D02*
X264643Y-1102214D01*
X350357Y-1102214D02*
X350357Y-802214D01*
X321786Y-845071D01*
X293214Y-873643D01*
X264643Y-887929D01*
X564643Y-1073643D02*
X578928Y-1087929D01*
X564643Y-1102214D01*
X550357Y-1087929D01*
X564643Y-1073643D01*
X564643Y-1102214D01*
X764643Y-802214D02*
X793214Y-802214D01*
X821786Y-816500D01*
X836071Y-830786D01*
X850357Y-859357D01*
X864643Y-916500D01*
X864643Y-987929D01*
X850357Y-1045071D01*
X836071Y-1073643D01*
X821786Y-1087929D01*
X793214Y-1102214D01*
X764643Y-1102214D01*
X736071Y-1087929D01*
X721786Y-1073643D01*
X707500Y-1045071D01*
X693214Y-987929D01*
X693214Y-916500D01*
X707500Y-859357D01*
X721786Y-830786D01*
X736071Y-816500D01*
X764643Y-802214D01*
X1050357Y-802214D02*
X1078928Y-802214D01*
X1107500Y-816500D01*
X1121786Y-830786D01*
X1136071Y-859357D01*
X1150357Y-916500D01*
X1150357Y-987929D01*
X1136071Y-1045071D01*
X1121786Y-1073643D01*
X1107500Y-1087929D01*
X1078928Y-1102214D01*
X1050357Y-1102214D01*
X1021786Y-1087929D01*
X1007500Y-1073643D01*
X993214Y-1045071D01*
X978928Y-987929D01*
X978928Y-916500D01*
X993214Y-859357D01*
X1007500Y-830786D01*
X1021786Y-816500D01*
X1050357Y-802214D01*
X1278928Y-1102214D02*
X1278928Y-902214D01*
X1278928Y-930786D02*
X1293214Y-916500D01*
X1321786Y-902214D01*
X1364643Y-902214D01*
X1393214Y-916500D01*
X1407500Y-945071D01*
X1407500Y-1102214D01*
X1407500Y-945071D02*
X1421786Y-916500D01*
X1450357Y-902214D01*
X1493214Y-902214D01*
X1521786Y-916500D01*
X1536071Y-945071D01*
X1536071Y-1102214D01*
X1678928Y-1102214D02*
X1678928Y-902214D01*
X1678928Y-930786D02*
X1693214Y-916500D01*
X1721786Y-902214D01*
X1764643Y-902214D01*
X1793214Y-916500D01*
X1807500Y-945071D01*
X1807500Y-1102214D01*
X1807500Y-945071D02*
X1821786Y-916500D01*
X1850357Y-902214D01*
X1893214Y-902214D01*
X1921786Y-916500D01*
X1936071Y-945071D01*
X1936071Y-1102214D01*
X2521786Y-787929D02*
X2264643Y-1173643D01*
X2907500Y-802214D02*
X2936071Y-802214D01*
X2964643Y-816500D01*
X2978928Y-830786D01*
X2993214Y-859357D01*
X3007500Y-916500D01*
X3007500Y-987929D01*
X2993214Y-1045071D01*
X2978928Y-1073643D01*
X2964643Y-1087929D01*
X2936071Y-1102214D01*
X2907500Y-1102214D01*
X2878928Y-1087929D01*
X2864643Y-1073643D01*
X2850357Y-1045071D01*
X2836071Y-987929D01*
X2836071Y-916500D01*
X2850357Y-859357D01*
X2864643Y-830786D01*
X2878928Y-816500D01*
X2907500Y-802214D01*
X3136071Y-1073643D02*
X3150357Y-1087929D01*
X3136071Y-1102214D01*
X3121786Y-1087929D01*
X3136071Y-1073643D01*
X3136071Y-1102214D01*
X3336071Y-802214D02*
X3364643Y-802214D01*
X3393214Y-816500D01*
X3407500Y-830786D01*
X3421786Y-859357D01*
X3436071Y-916500D01*
X3436071Y-987929D01*
X3421786Y-1045071D01*
X3407500Y-1073643D01*
X3393214Y-1087929D01*
X3364643Y-1102214D01*
X3336071Y-1102214D01*
X3307500Y-1087929D01*
X3293214Y-1073643D01*
X3278928Y-1045071D01*
X3264643Y-987929D01*
X3264643Y-916500D01*
X3278928Y-859357D01*
X3293214Y-830786D01*
X3307500Y-816500D01*
X3336071Y-802214D01*
X3536071Y-802214D02*
X3721786Y-802214D01*
X3621786Y-916500D01*
X3664643Y-916500D01*
X3693214Y-930786D01*
X3707500Y-945071D01*
X3721786Y-973643D01*
X3721786Y-1045071D01*
X3707500Y-1073643D01*
X3693214Y-1087929D01*
X3664643Y-1102214D01*
X3578928Y-1102214D01*
X3550357Y-1087929D01*
X3536071Y-1073643D01*
X3864643Y-1102214D02*
X3921786Y-1102214D01*
X3950357Y-1087929D01*
X3964643Y-1073643D01*
X3993214Y-1030786D01*
X4007500Y-973643D01*
X4007500Y-859357D01*
X3993214Y-830786D01*
X3978928Y-816500D01*
X3950357Y-802214D01*
X3893214Y-802214D01*
X3864643Y-816500D01*
X3850357Y-830786D01*
X3836071Y-859357D01*
X3836071Y-930786D01*
X3850357Y-959357D01*
X3864643Y-973643D01*
X3893214Y-987929D01*
X3950357Y-987929D01*
X3978928Y-973643D01*
X3993214Y-959357D01*
X4007500Y-930786D01*
X4121786Y-802214D02*
X4121786Y-859357D01*
X4236071Y-802214D02*
X4236071Y-859357D01*
X4678928Y-1216500D02*
X4664643Y-1202214D01*
X4636071Y-1159357D01*
X4621786Y-1130786D01*
X4607500Y-1087929D01*
X4593214Y-1016500D01*
X4593214Y-959357D01*
X4607500Y-887929D01*
X4621786Y-845071D01*
X4636071Y-816500D01*
X4664643Y-773643D01*
X4678928Y-759357D01*
X4921786Y-902214D02*
X4921786Y-1102214D01*
X4850357Y-787929D02*
X4778928Y-1002214D01*
X4964643Y-1002214D01*
X5207500Y-902214D02*
X5207500Y-1102214D01*
X5136071Y-787929D02*
X5064643Y-1002214D01*
X5250357Y-1002214D01*
X5593214Y-1102214D02*
X5593214Y-802214D01*
X5721786Y-1102214D02*
X5721786Y-945071D01*
X5707500Y-916500D01*
X5678928Y-902214D01*
X5636071Y-902214D01*
X5607500Y-916500D01*
X5593214Y-930786D01*
X5907500Y-1102214D02*
X5878928Y-1087929D01*
X5864643Y-1073643D01*
X5850357Y-1045071D01*
X5850357Y-959357D01*
X5864643Y-930786D01*
X5878928Y-916500D01*
X5907500Y-902214D01*
X5950357Y-902214D01*
X5978928Y-916500D01*
X5993214Y-930786D01*
X6007500Y-959357D01*
X6007500Y-1045071D01*
X5993214Y-1073643D01*
X5978928Y-1087929D01*
X5950357Y-1102214D01*
X5907500Y-1102214D01*
X6178928Y-1102214D02*
X6150357Y-1087929D01*
X6136071Y-1059357D01*
X6136071Y-802214D01*
X6407500Y-1087929D02*
X6378928Y-1102214D01*
X6321786Y-1102214D01*
X6293214Y-1087929D01*
X6278928Y-1059357D01*
X6278928Y-945071D01*
X6293214Y-916500D01*
X6321786Y-902214D01*
X6378928Y-902214D01*
X6407500Y-916500D01*
X6421786Y-945071D01*
X6421786Y-973643D01*
X6278928Y-1002214D01*
X6536071Y-1087929D02*
X6564643Y-1102214D01*
X6621786Y-1102214D01*
X6650357Y-1087929D01*
X6664643Y-1059357D01*
X6664643Y-1045071D01*
X6650357Y-1016500D01*
X6621786Y-1002214D01*
X6578928Y-1002214D01*
X6550357Y-987929D01*
X6536071Y-959357D01*
X6536071Y-945071D01*
X6550357Y-916500D01*
X6578928Y-902214D01*
X6621786Y-902214D01*
X6650357Y-916500D01*
X6764643Y-1216500D02*
X6778928Y-1202214D01*
X6807500Y-1159357D01*
X6821786Y-1130786D01*
X6836071Y-1087929D01*
X6850357Y-1016500D01*
X6850357Y-959357D01*
X6836071Y-887929D01*
X6821786Y-845071D01*
X6807500Y-816500D01*
X6778928Y-773643D01*
X6764643Y-759357D01*
M02*
