G04 #@! TF.GenerationSoftware,KiCad,Pcbnew,(2017-05-18 revision 2a3a699)-master*
G04 #@! TF.CreationDate,2019-03-29T17:20:29+00:00*
G04 #@! TF.ProjectId,probe,70726F62652E6B696361645F70636200,rev?*
G04 #@! TF.FileFunction,Legend,Top*
G04 #@! TF.FilePolarity,Positive*
%FSLAX46Y46*%
G04 Gerber Fmt 4.6, Leading zero omitted, Abs format (unit mm)*
G04 Created by KiCad (PCBNEW (2017-05-18 revision 2a3a699)-master) date Fri Mar 29 17:20:29 2019*
%MOMM*%
%LPD*%
G01*
G04 APERTURE LIST*
%ADD10C,0.100000*%
%ADD11C,0.200000*%
%ADD12C,0.300000*%
%ADD13C,0.120000*%
%ADD14C,0.150000*%
G04 APERTURE END LIST*
D10*
D11*
X12280000Y22320000D02*
X12280000Y22320000D01*
X11920000Y22320000D02*
X12280000Y22320000D01*
X4140000Y30100000D02*
X11920000Y22320000D01*
X12963836Y22300000D02*
G75*
G03X12963836Y22300000I-353836J0D01*
G01*
X4243836Y30400000D02*
G75*
G03X4243836Y30400000I-353836J0D01*
G01*
D12*
X9702857Y27181429D02*
X8988571Y27181429D01*
X8988571Y28681429D01*
X10488571Y28681429D02*
X10774285Y28681429D01*
X10917142Y28610000D01*
X11060000Y28467143D01*
X11131428Y28181429D01*
X11131428Y27681429D01*
X11060000Y27395715D01*
X10917142Y27252858D01*
X10774285Y27181429D01*
X10488571Y27181429D01*
X10345714Y27252858D01*
X10202857Y27395715D01*
X10131428Y27681429D01*
X10131428Y28181429D01*
X10202857Y28467143D01*
X10345714Y28610000D01*
X10488571Y28681429D01*
X12560000Y28610000D02*
X12417142Y28681429D01*
X12202857Y28681429D01*
X11988571Y28610000D01*
X11845714Y28467143D01*
X11774285Y28324286D01*
X11702857Y28038572D01*
X11702857Y27824286D01*
X11774285Y27538572D01*
X11845714Y27395715D01*
X11988571Y27252858D01*
X12202857Y27181429D01*
X12345714Y27181429D01*
X12560000Y27252858D01*
X12631428Y27324286D01*
X12631428Y27824286D01*
X12345714Y27824286D01*
X13274285Y27181429D02*
X13274285Y28681429D01*
X14845714Y27324286D02*
X14774285Y27252858D01*
X14560000Y27181429D01*
X14417142Y27181429D01*
X14202857Y27252858D01*
X14060000Y27395715D01*
X13988571Y27538572D01*
X13917142Y27824286D01*
X13917142Y28038572D01*
X13988571Y28324286D01*
X14060000Y28467143D01*
X14202857Y28610000D01*
X14417142Y28681429D01*
X14560000Y28681429D01*
X14774285Y28610000D01*
X14845714Y28538572D01*
X15417142Y27252858D02*
X15631428Y27181429D01*
X15988571Y27181429D01*
X16131428Y27252858D01*
X16202857Y27324286D01*
X16274285Y27467143D01*
X16274285Y27610000D01*
X16202857Y27752858D01*
X16131428Y27824286D01*
X15988571Y27895715D01*
X15702857Y27967143D01*
X15560000Y28038572D01*
X15488571Y28110000D01*
X15417142Y28252858D01*
X15417142Y28395715D01*
X15488571Y28538572D01*
X15560000Y28610000D01*
X15702857Y28681429D01*
X16060000Y28681429D01*
X16274285Y28610000D01*
X18060000Y27752858D02*
X19202857Y27752858D01*
X21060000Y28681429D02*
X21060000Y27467143D01*
X21131428Y27324286D01*
X21202857Y27252858D01*
X21345714Y27181429D01*
X21631428Y27181429D01*
X21774285Y27252858D01*
X21845714Y27324286D01*
X21917142Y27467143D01*
X21917142Y28681429D01*
X23131428Y27967143D02*
X22631428Y27967143D01*
X22631428Y27181429D02*
X22631428Y28681429D01*
X23345714Y28681429D01*
X24774285Y27181429D02*
X24274285Y27895715D01*
X23917142Y27181429D02*
X23917142Y28681429D01*
X24488571Y28681429D01*
X24631428Y28610000D01*
X24702857Y28538572D01*
X24774285Y28395715D01*
X24774285Y28181429D01*
X24702857Y28038572D01*
X24631428Y27967143D01*
X24488571Y27895715D01*
X23917142Y27895715D01*
X26202857Y28610000D02*
X26060000Y28681429D01*
X25845714Y28681429D01*
X25631428Y28610000D01*
X25488571Y28467143D01*
X25417142Y28324286D01*
X25345714Y28038572D01*
X25345714Y27824286D01*
X25417142Y27538572D01*
X25488571Y27395715D01*
X25631428Y27252858D01*
X25845714Y27181429D01*
X25988571Y27181429D01*
X26202857Y27252858D01*
X26274285Y27324286D01*
X26274285Y27824286D01*
X25988571Y27824286D01*
X26845714Y27252858D02*
X27060000Y27181429D01*
X27417142Y27181429D01*
X27560000Y27252858D01*
X27631428Y27324286D01*
X27702857Y27467143D01*
X27702857Y27610000D01*
X27631428Y27752858D01*
X27560000Y27824286D01*
X27417142Y27895715D01*
X27131428Y27967143D01*
X26988571Y28038572D01*
X26917142Y28110000D01*
X26845714Y28252858D01*
X26845714Y28395715D01*
X26917142Y28538572D01*
X26988571Y28610000D01*
X27131428Y28681429D01*
X27488571Y28681429D01*
X27702857Y28610000D01*
X13854285Y7761429D02*
X13854285Y9261429D01*
X14711428Y7761429D01*
X14711428Y9261429D01*
X15425714Y8547143D02*
X15925714Y8547143D01*
X16140000Y7761429D02*
X15425714Y7761429D01*
X15425714Y9261429D01*
X16140000Y9261429D01*
X17068571Y9261429D02*
X17354285Y9261429D01*
X17497142Y9190000D01*
X17640000Y9047143D01*
X17711428Y8761429D01*
X17711428Y8261429D01*
X17640000Y7975715D01*
X17497142Y7832858D01*
X17354285Y7761429D01*
X17068571Y7761429D01*
X16925714Y7832858D01*
X16782857Y7975715D01*
X16711428Y8261429D01*
X16711428Y8761429D01*
X16782857Y9047143D01*
X16925714Y9190000D01*
X17068571Y9261429D01*
X19211428Y7904286D02*
X19140000Y7832858D01*
X18925714Y7761429D01*
X18782857Y7761429D01*
X18568571Y7832858D01*
X18425714Y7975715D01*
X18354285Y8118572D01*
X18282857Y8404286D01*
X18282857Y8618572D01*
X18354285Y8904286D01*
X18425714Y9047143D01*
X18568571Y9190000D01*
X18782857Y9261429D01*
X18925714Y9261429D01*
X19140000Y9190000D01*
X19211428Y9118572D01*
X19854285Y7761429D02*
X19854285Y9261429D01*
X19854285Y8547143D02*
X20711428Y8547143D01*
X20711428Y7761429D02*
X20711428Y9261429D01*
X21425714Y7761429D02*
X21425714Y9261429D01*
X22140000Y7761429D02*
X22140000Y9261429D01*
X22711428Y9261429D01*
X22854285Y9190000D01*
X22925714Y9118572D01*
X22997142Y8975715D01*
X22997142Y8761429D01*
X22925714Y8618572D01*
X22854285Y8547143D01*
X22711428Y8475715D01*
X22140000Y8475715D01*
D13*
X35700000Y4070000D02*
X34370000Y4070000D01*
X35700000Y5400000D02*
X35700000Y4070000D01*
X35700000Y6670000D02*
X33040000Y6670000D01*
X33040000Y6670000D02*
X33040000Y32130000D01*
X35700000Y6670000D02*
X35700000Y32130000D01*
X35700000Y32130000D02*
X33040000Y32130000D01*
X32120000Y480000D02*
X32120000Y3140000D01*
X6660000Y480000D02*
X32120000Y480000D01*
X6660000Y3140000D02*
X32120000Y3140000D01*
X6660000Y480000D02*
X6660000Y3140000D01*
X5390000Y480000D02*
X4060000Y480000D01*
X4060000Y480000D02*
X4060000Y1810000D01*
X460000Y32150000D02*
X1790000Y32150000D01*
X460000Y30820000D02*
X460000Y32150000D01*
X460000Y29550000D02*
X3120000Y29550000D01*
X3120000Y29550000D02*
X3120000Y4090000D01*
X460000Y29550000D02*
X460000Y4090000D01*
X460000Y4090000D02*
X3120000Y4090000D01*
X4050000Y35730000D02*
X4050000Y33070000D01*
X29510000Y35730000D02*
X4050000Y35730000D01*
X29510000Y33070000D02*
X4050000Y33070000D01*
X29510000Y35730000D02*
X29510000Y33070000D01*
X30780000Y35730000D02*
X32110000Y35730000D01*
X32110000Y35730000D02*
X32110000Y34400000D01*
X21785000Y22765000D02*
X22735000Y22765000D01*
X22735000Y22765000D02*
X22735000Y21815000D01*
X14435000Y13515000D02*
X13485000Y13515000D01*
X13485000Y13515000D02*
X13485000Y14465000D01*
X21785000Y13515000D02*
X22735000Y13515000D01*
X22735000Y13515000D02*
X22735000Y14465000D01*
X13485000Y22765000D02*
X14435000Y22765000D01*
D14*
X33846666Y3497620D02*
X33846666Y2783334D01*
X33799047Y2640477D01*
X33703809Y2545239D01*
X33560952Y2497620D01*
X33465714Y2497620D01*
X34227619Y3497620D02*
X34846666Y3497620D01*
X34513333Y3116667D01*
X34656190Y3116667D01*
X34751428Y3069048D01*
X34799047Y3021429D01*
X34846666Y2926191D01*
X34846666Y2688096D01*
X34799047Y2592858D01*
X34751428Y2545239D01*
X34656190Y2497620D01*
X34370476Y2497620D01*
X34275238Y2545239D01*
X34227619Y2592858D01*
X2512380Y1476667D02*
X3226666Y1476667D01*
X3369523Y1429048D01*
X3464761Y1333810D01*
X3512380Y1190953D01*
X3512380Y1095715D01*
X2607619Y1905239D02*
X2560000Y1952858D01*
X2512380Y2048096D01*
X2512380Y2286191D01*
X2560000Y2381429D01*
X2607619Y2429048D01*
X2702857Y2476667D01*
X2798095Y2476667D01*
X2940952Y2429048D01*
X3512380Y1857620D01*
X3512380Y2476667D01*
X1456666Y33697620D02*
X1456666Y32983334D01*
X1409047Y32840477D01*
X1313809Y32745239D01*
X1170952Y32697620D01*
X1075714Y32697620D01*
X2456666Y32697620D02*
X1885238Y32697620D01*
X2170952Y32697620D02*
X2170952Y33697620D01*
X2075714Y33554762D01*
X1980476Y33459524D01*
X1885238Y33411905D01*
X32562380Y34066667D02*
X33276666Y34066667D01*
X33419523Y34019048D01*
X33514761Y33923810D01*
X33562380Y33780953D01*
X33562380Y33685715D01*
X32895714Y34971429D02*
X33562380Y34971429D01*
X32514761Y34733334D02*
X33229047Y34495239D01*
X33229047Y35114286D01*
X17348095Y24287620D02*
X17348095Y23478096D01*
X17395714Y23382858D01*
X17443333Y23335239D01*
X17538571Y23287620D01*
X17729047Y23287620D01*
X17824285Y23335239D01*
X17871904Y23382858D01*
X17919523Y23478096D01*
X17919523Y24287620D01*
X18919523Y23287620D02*
X18348095Y23287620D01*
X18633809Y23287620D02*
X18633809Y24287620D01*
X18538571Y24144762D01*
X18443333Y24049524D01*
X18348095Y24001905D01*
M02*
